<?xml version="1.0" encoding="UTF-8" standalone="no"?>
<!-- Created with Inkscape (http://www.inkscape.org/) -->

<svg
   xmlns:dc="http://purl.org/dc/elements/1.1/"
   xmlns:cc="http://creativecommons.org/ns#"
   xmlns:rdf="http://www.w3.org/1999/02/22-rdf-syntax-ns#"
   xmlns:svg="http://www.w3.org/2000/svg"
   xmlns="http://www.w3.org/2000/svg"
   xmlns:sodipodi="http://sodipodi.sourceforge.net/DTD/sodipodi-0.dtd"
   xmlns:inkscape="http://www.inkscape.org/namespaces/inkscape"
   width="34.862785"
   height="48.005421"
   viewBox="0 0 9.2241121 12.701434"
   version="1.1"
   id="svg8"
   inkscape:version="0.92.3 (2405546, 2018-03-11)"
   sodipodi:docname="logo.svg">
  <defs
     id="defs2" />
  <sodipodi:namedview
     id="base"
     pagecolor="#ffffff"
     bordercolor="#666666"
     borderopacity="1.0"
     inkscape:pageopacity="0.0"
     inkscape:pageshadow="2"
     inkscape:zoom="11.2"
     inkscape:cx="5.2114643"
     inkscape:cy="24.796544"
     inkscape:document-units="mm"
     inkscape:current-layer="layer1"
     showgrid="false"
     fit-margin-top="0"
     fit-margin-left="0"
     fit-margin-right="0"
     fit-margin-bottom="0"
     inkscape:window-width="1920"
     inkscape:window-height="1049"
     inkscape:window-x="0"
     inkscape:window-y="1"
     inkscape:window-maximized="1"
     units="px" />
  <metadata
     id="metadata5">
    <rdf:RDF>
      <cc:Work
         rdf:about="">
        <dc:format>image/svg+xml</dc:format>
        <dc:type
           rdf:resource="http://purl.org/dc/dcmitype/StillImage" />
        <dc:title />
      </cc:Work>
    </rdf:RDF>
  </metadata>
  <g
     inkscape:label="Layer 1"
     inkscape:groupmode="layer"
     id="layer1"
     transform="translate(-93.814256,-161.25638)">
    <path
       inkscape:connector-curvature="0"
       id="path840"
       d="m 100.01532,173.92204 c 0.0277,-0.0306 0.031,-0.0614 0.0198,-0.18364 -0.0124,-0.13572 -0.019,-0.15212 -0.0865,-0.21634 -0.0402,-0.0383 -0.09811,-0.0865 -0.128715,-0.10719 -0.03641,-0.0247 -0.08621,-0.10364 -0.144121,-0.22829 -0.09517,-0.20494 -0.168088,-0.29974 -0.23056,-0.29974 -0.02157,0 -0.08247,0.0278 -0.135339,0.0616 -0.126837,0.0815 -0.172831,0.0687 -0.325497,-0.0899 -0.08926,-0.0927 -0.163273,-0.20397 -0.286364,-0.43058 -0.0913,-0.16807 -0.201087,-0.3578 -0.24398,-0.42164 -0.0441,-0.0656 -0.07049,-0.1236 -0.06075,-0.13336 0.0095,-0.009 0.160035,-0.05 0.334569,-0.09 0.258536,-0.0593 0.385381,-0.10202 0.684596,-0.23064 0.282363,-0.12139 0.395793,-0.16039 0.490674,-0.1688 0.155247,-0.0133 0.206077,-0.0568 0.162727,-0.13794 -0.0154,-0.0288 -0.0604,-0.089 -0.09998,-0.13351 -0.0708,-0.0798 -0.07419,-0.0812 -0.218372,-0.0857 -0.08365,-0.003 -0.201943,0.009 -0.275865,0.0272 -0.119075,0.0293 -0.140794,0.0293 -0.271922,-6.4e-4 -0.07839,-0.0179 -0.161535,-0.0324 -0.184787,-0.0324 -0.06235,0 -0.151782,0.10039 -0.178517,0.20035 -0.02975,0.11118 -0.04866,0.13336 -0.125743,0.14755 -0.05918,0.0104 -0.850528,-0.14666 -0.87875,-0.17481 -0.0067,-0.006 -0.0456,-0.15617 -0.08653,-0.33226 l -0.07444,-0.32016 0.136847,-0.18895 c 0.07527,-0.10393 0.163143,-0.24103 0.195281,-0.3047 0.135398,-0.26823 0.188386,-0.62899 0.128701,-0.8764 -0.04774,-0.19788 -0.09421,-0.28314 -0.225603,-0.41388 -0.159132,-0.15834 -0.289359,-0.2251 -0.578195,-0.29639 -0.305365,-0.0754 -0.366907,-0.10246 -0.406405,-0.17883 -0.04264,-0.0825 -0.05799,-0.21816 -0.03222,-0.2849 l 0.02144,-0.0556 0.08451,0.0492 c 0.04648,0.0271 0.14455,0.0643 0.217914,0.0827 0.119312,0.0299 0.14792,0.0473 0.270899,0.16652 0.1215,0.11768 0.167188,0.14607 0.39268,0.2441 0.287997,0.12523 0.555367,0.21373 0.645253,0.21373 0.03325,0 0.133032,-0.0377 0.221721,-0.0838 0.138532,-0.072 0.183424,-0.0853 0.318606,-0.0943 0.115039,-0.007 0.162757,-0.0191 0.177457,-0.0424 0.03242,-0.0517 0.0021,-0.097 -0.06499,-0.097 -0.07874,0 -0.07687,-0.03 0.0037,-0.0581 0.08103,-0.0282 0.219089,-0.17014 0.209693,-0.21551 -0.0053,-0.0259 -0.02485,-0.0331 -0.08012,-0.0299 -0.07097,0.004 -0.07271,0.003 -0.06133,-0.0543 0.01589,-0.0795 -0.01841,-0.0887 -0.155001,-0.0417 -0.0611,0.021 -0.160632,0.0485 -0.221177,0.0611 -0.09455,0.0197 -0.133416,0.0436 -0.275446,0.1701 -0.09094,0.081 -0.177184,0.14755 -0.191631,0.14785 -0.01449,2.6e-4 -0.103788,-0.0725 -0.198523,-0.16187 -0.09474,-0.0893 -0.180573,-0.16958 -0.190746,-0.1783 -0.0105,-0.009 0.03854,-0.075 0.11464,-0.15376 0.07323,-0.0759 0.151164,-0.17867 0.173208,-0.22851 0.04225,-0.0955 0.04803,-0.0986 0.226956,-0.12109 0.309763,-0.0389 0.95539,-0.24496 1.290386,-0.4119 0.586411,-0.29223 1.086021,-0.71698 1.819861,-1.54721 0.20001,-0.22629 0.52167,-0.52147 0.73103,-0.67085 0.0817,-0.0583 0.26028,-0.16351 0.3969,-0.23382 0.13662,-0.0704 0.25683,-0.13572 0.26713,-0.14548 0.0118,-0.0104 -0.003,-0.0408 -0.0387,-0.0776 -0.081,-0.0846 -0.43509,-0.19769 -0.66445,-0.21228 -0.55324,-0.0352 -1.64687,0.39799 -2.690101,1.06551 -0.25129,0.16079 -0.479225,0.30402 -0.506522,0.31829 -0.02729,0.0148 -0.223833,0.13883 -0.436747,0.27691 -0.405051,0.26261 -1.113515,0.67881 -1.372218,0.80615 -0.150389,0.0741 -0.232831,0.0813 -0.208737,0.0186 0.0062,-0.0163 0.14004,-0.22833 0.297352,-0.47132 0.157311,-0.24299 0.29549,-0.46022 0.307062,-0.48273 0.218947,-0.32999 0.304963,-0.78932 0.41584,-1.07266 0.320592,-0.81204 0.402049,-1.05194 0.508295,-1.49687 0.09184,-0.38459 0.159913,-0.95828 0.144874,-1.2209 -0.01666,-0.29115 -0.0814,-0.6231 -0.131228,-0.67292 -0.03545,-0.0355 -0.04391,-0.0368 -0.06799,-0.0118 -0.01512,0.0161 -0.04789,0.0917 -0.0728,0.16812 -0.06031,0.18503 -0.507348,1.10277 -0.612846,1.25811 -0.115394,0.16992 -0.311305,0.65086 -0.457924,1.12414 -0.155699,0.50258 -0.15197,0.49343 -0.194384,0.47696 -0.0822,-0.0319 -0.29689,-0.0333 -0.426784,-0.003 -0.181778,0.0427 -0.268467,0.0903 -0.416313,0.22868 -0.14174,0.13262 -0.20443,0.24231 -0.235014,0.41133 -0.01153,0.0642 -0.02939,0.13202 -0.03953,0.15105 -0.02521,0.0472 -0.02312,0.10749 0.0053,0.15293 0.02782,0.0445 0.0139,0.0785 -0.09307,0.22671 -0.05591,0.0775 -0.06961,0.11473 -0.06961,0.18935 0,0.10645 0.03498,0.1794 0.204976,0.42767 0.141859,0.2072 0.211587,0.26919 0.302776,0.26919 0.07719,0 0.08921,0.0342 0.03066,0.0871 -0.03185,0.0288 -0.06323,0.0318 -0.214853,0.0204 -0.126985,-0.009 -0.191285,-0.006 -0.225746,0.0118 -0.02651,0.0133 -0.128582,0.10675 -0.226856,0.20681 -0.17402,0.17709 -0.286664,0.26247 -0.502304,0.3807 -0.0949,0.052 -0.107114,0.0544 -0.124087,0.0247 -0.01035,-0.0182 -0.09532,-0.14681 -0.18881,-0.28595 -0.09348,-0.13912 -0.197162,-0.30738 -0.230385,-0.37396 -0.08342,-0.16714 -0.140365,-0.22097 -0.297178,-0.28089 -0.07438,-0.0284 -0.167124,-0.0733 -0.206092,-0.0998 -0.03897,-0.0265 -0.08414,-0.048 -0.100373,-0.048 -0.03893,0 -0.05943,0.0562 -0.03091,0.0847 0.04877,0.0488 0.01832,0.0544 -0.05896,0.0103 -0.04667,-0.0262 -0.09663,-0.0755 -0.117006,-0.11547 -0.06674,-0.1307 -0.178731,-0.18327 -0.178731,-0.0838 0,0.0779 0.07605,0.32127 0.116429,0.3726 0.02331,0.0296 0.04239,0.0643 0.04239,0.077 0,0.0133 0.03494,0.0572 0.07762,0.0989 0.07301,0.0713 0.0876,0.0769 0.245382,0.0928 0.193914,0.0197 0.262402,0.0414 0.289563,0.0922 0.01064,0.02 0.05253,0.18789 0.093,0.37318 0.04449,0.2037 0.09363,0.37447 0.124324,0.43195 0.05963,0.11162 0.197702,0.24542 0.272857,0.26429 0.06659,0.0167 0.233681,-0.0201 0.424552,-0.0934 0.08117,-0.0312 0.149262,-0.0547 0.15133,-0.052 0.02904,0.0358 0.07068,0.15516 0.09854,0.28255 0.0437,0.19986 0.08342,0.27839 0.325009,0.64294 0.119682,0.18058 0.20075,0.32403 0.209512,0.37072 0.0078,0.0418 0.0033,0.17937 -0.01005,0.3055 -0.02265,0.21275 -0.02148,0.24076 0.01622,0.38812 0.02235,0.0874 0.09104,0.2721 0.152663,0.41054 l 0.112023,0.25174 -0.03313,0.18502 c -0.04274,0.23871 -0.05157,1.07352 -0.01272,1.20159 0.03905,0.12862 0.140336,0.24644 0.265016,0.30815 0.119223,0.059 0.36957,0.11458 0.516509,0.11458 h 0.0922 l 0.251201,0.26642 c 0.191655,0.20326 0.358034,0.35073 0.701879,0.6221 0.506437,0.39967 0.754993,0.56754 1.114167,0.75245 0.135738,0.0699 0.25837,0.14356 0.272535,0.16381 0.02463,0.0352 0.205961,0.14075 0.241734,0.14075 0.0095,0 0.03211,-0.0166 0.0504,-0.0368 z"
       style="fill:#00466f;fill-opacity:1;stroke-width:0.0198521"
       sodipodi:nodetypes="csccssccscccsccccccssccscsssccccccccsssccsccccccscsccssssssccsscsccsccssccssssccccccscsccccccccccscccscsccccsccccsccsscsssccssccscc" />
  </g>
</svg>
